# xmcd
#
# Track frame offsets:
#	150
#	11165
#	22526
#	36549
#	46939
#	55822
#	66635
#	81353
#	91731
#	104755
#	113387
#	123499
#	134217
#	146271
#	155714
#	168250
#	177659
#	189733
#	198118
#	209121
#	219296
#	230997
#	240474
#	250394
#	262694
#	274274
#	284268
#	293968
#	306716
#	317543
#	328409
#	339030
#
# Disc length: 4686 seconds
#
# Revision: 1
# Processed by: cddbd v1.5.2PL0 Copyright (c) Steve Scherf et al.
# Submitted via: audiograbber 1.83.01
#
DISCID=f0124c20
DTITLE=Hamilton, George IV - To You And Yours
DYEAR=2009
DGENRE=Pop
TTITLE0=Everybody's Baby
TTITLE1=Why Don't They Undestand
TTITLE2=I've Got A Secret
TTITLE3=I Know Where I'm Goin'
TTITLE4=A Rose And A Baby Ruth
TTITLE5=If You Don't Know, I Ain't Gonna Tell You
TTITLE6=When I Grow Too Old To Dream
TTITLE7=Even Tho'
TTITLE8=Only One Love
TTITLE9=High School Romance
TTITLE10=Your Cheatin' Heart
TTITLE11=Now And For Always
TTITLE12=When Will I Know
TTITLE13=Gee
TTITLE14=I'm So Lonesome I Could Cry
TTITLE15=House A Car And A Wedding Ring
TTITLE16=Can You Blame Us
TTITLE17=The Steady Game
TTITLE18=Last Night We Fell In Love
TTITLE19=Who's Taking You To The Prom
TTITLE20=Before This Day Ends
TTITLE21=That's How It Goes
TTITLE22=Can't Let Her See Me Cry
TTITLE23=To You And Yours (From Me And Mine)
TTITLE24=Three Steps To The Phone (Millions Of Miles)
TTITLE25=Abilene
TTITLE26=You're Easy To Love
TTITLE27=You Nearly Lose Your Mind
TTITLE28=Jimmy Brown The Newsboy
TTITLE29=A Rose And A Baby Ruth (Rerecorded Version)
TTITLE30=I've Got A Secret (Rerecorded Version)
TTITLE31=If You Don't Know I Ain't Gonna Tell You (Rerecorded Version)
EXTD=
EXTT0=
EXTT1=
EXTT2=
EXTT3=
EXTT4=
EXTT5=
EXTT6=
EXTT7=
EXTT8=
EXTT9=
EXTT10=
EXTT11=
EXTT12=
EXTT13=
EXTT14=
EXTT15=
EXTT16=
EXTT17=
EXTT18=
EXTT19=
EXTT20=
EXTT21=
EXTT22=
EXTT23=
EXTT24=
EXTT25=
EXTT26=
EXTT27=
EXTT28=
EXTT29=
EXTT30=
EXTT31=
PLAYORDER=
